# xmcd CD database file
#
# Track frame offsets:
#	150
#	28021
#	54988
#	81163
#	94214
#	124570
#	158108
#	182981
#	215938
#
# Disc length: 3309 seconds
#
# Revision: 0
# Processed by: cddbd v1.5.2PL0 Copyright (c) Steve Scherf et al.
# Submitted via: CDex 1.75
#
DISCID=790ceb09
DTITLE=Eric Alexander - Song of No Regrets
DYEAR=2017
DGENRE=Jazz
TTITLE0=But Here's the Thing
TTITLE1=These Three Words
TTITLE2=Grinder
TTITLE3=Corazon Perdido
TTITLE4=Mas Que Nada
TTITLE5=Boom Zoom
TTITLE6=Song of No Regrets
TTITLE7=Cede's Shack
TTITLE8=Up, Up and Away
EXTD=YEAR: 2017
EXTT0=
EXTT1=
EXTT2=
EXTT3=
EXTT4=
EXTT5=
EXTT6=
EXTT7=
EXTT8=
PLAYORDER=
